<?xml version="1.0" encoding="utf-8"?>
<!-- Generator: Adobe Illustrator 26.0.0, SVG Export Plug-In . SVG Version: 6.00 Build 0)  -->
<svg version="1.1" id="Capa_1" xmlns="http://www.w3.org/2000/svg" xmlns:xlink="http://www.w3.org/1999/xlink" x="0px" y="0px"
	 viewBox="0 0 1057.5 176.3" style="enable-background:new 0 0 1057.5 176.3;" xml:space="preserve">
<g>
	<path d="M48.4,174.6h-45V1.7h70.7c25.8,0,39.9,16.6,39.9,42.5v29c0,49.1-34.1,58.6-50.7,58.6c-4.1,0-7.3-0.7-8.3-1.4L48.4,93V174.6
		z M57.9,94.8c7.1,0,11.2-3.6,11.2-12.8V53.6c0-10-2.2-13.8-9.9-13.8H48.4V91C51,93.4,53.3,94.8,57.9,94.8z"/>
	<path d="M121,132.1V44.3C121,18.3,135.2,0,161,0h29.7c25.8,0,39.9,18.3,39.9,44.3v87.8c0,25.9-14.2,44.3-39.9,44.3H161
		C135.2,176.4,121,158,121,132.1z M186.7,118.6V57.8c0-6.6,1-18-10.9-18c-11.9,0-10.9,11.4-10.9,18v60.9c0,6.6-1,18,10.9,18
		C187.8,136.6,186.7,125.2,186.7,118.6z"/>
	<path d="M237.6,1.7h70.7c25.8,0,39.9,16.6,39.9,42.5V65c0,19.9-12.3,30.6-26.5,36.3c6.2,1.9,7.6,5.9,10.4,15.2l17.1,58.1h-48.8
		l-17.8-66.6h-0.2v66.6h-45V1.7z M282.5,74.2c15.4,0,20.7-2.6,20.7-13.5v-7.1c0-10-2.2-13.8-9.9-13.8h-10.9V74.2z"/>
	<path d="M450.4,48.4h-25.9v126.2h-45.8V48.4h-25.9V1.7h97.7V48.4z"/>
	<path d="M460.3,1.7H548l16.8,172.9h-46.2l-8-83.3l-3.8,40.1h-13l-4.1,43.2h-46.2L460.3,1.7z M510.4,88.2l-6.2-64.7L498,88.2H510.4z
		"/>
	<path d="M568.2,174.6V1.7h98.9V45H614v18.2h44.6v43.2h-37.3L614,65.9v108.8H568.2z"/>
	<path d="M672.3,132.1V44.3c0-25.9,14.2-44.3,39.9-44.3H742c25.8,0,39.9,18.3,39.9,44.3v87.8c0,25.9-14.2,44.3-39.9,44.3h-29.7
		C686.5,176.4,672.3,158,672.3,132.1z M738,118.6V57.8c0-6.6,1-18-10.9-18s-10.9,11.4-10.9,18v60.9c0,6.6-1,18,10.9,18
		S738,125.2,738,118.6z"/>
	<path d="M788.8,174.6V1.7h45.8v170.1l8-43.9h44.8v46.7H788.8z"/>
	<path d="M892.6,1.7h45v172.9h-45V1.7z"/>
	<path d="M944.4,132.1V44.3c0-25.9,14.2-44.3,39.9-44.3h29.7c25.8,0,39.9,18.3,39.9,44.3v87.8c0,25.9-14.2,44.3-39.9,44.3h-29.7
		C958.6,176.4,944.4,158,944.4,132.1z M1010.1,118.6V57.8c0-6.6,1-18-10.9-18s-10.9,11.4-10.9,18v60.9c0,6.6-1,18,10.9,18
		S1010.1,125.2,1010.1,118.6z"/>
</g>
</svg>
